STARTFONT 2.3
FONT -FontForge-Zen Loop-Book-R-Normal--20-200-72-72-P-64-ISO10646-1
SIZE 20 72 72  2
FONTBOUNDINGBOX 17 24 -2 -6
COMMENT "Generated by fontforge, http://fontforge.sourceforge.net"
COMMENT "Copyright 2021 The Zen-Loop Project Authors (https://github.com/googlefonts/zen-loop)"
STARTPROPERTIES 40
FOUNDRY "FontForge"
FAMILY_NAME "Zen Loop"
WEIGHT_NAME "Book"
SLANT "R"
SETWIDTH_NAME "Normal"
ADD_STYLE_NAME ""
PIXEL_SIZE 20
POINT_SIZE 200
RESOLUTION_X 72
RESOLUTION_Y 72
SPACING "P"
AVERAGE_WIDTH 64
CHARSET_REGISTRY "ISO10646"
CHARSET_ENCODING "1"
FONTNAME_REGISTRY ""
CHARSET_COLLECTIONS "ISO10646-1"
BITS_PER_PIXEL 2
FONT_NAME "ZenLoop-Regular"
FACE_NAME "Zen Loop Regular"
COPYRIGHT "Copyright 2021 The Zen-Loop Project Authors (https://github.com/googlefonts/zen-loop)"
FONT_VERSION "1.000; ttfautohint (v1.8.3)"
FONT_ASCENT 16
FONT_DESCENT 4
UNDERLINE_POSITION -3
UNDERLINE_THICKNESS 1
X_HEIGHT 9
CAP_HEIGHT 13
RAW_ASCENT 800
RAW_DESCENT 200
NORM_SPACE 5
RELATIVE_WEIGHT 40
RELATIVE_SETWIDTH 50
SUPERSCRIPT_X 0
SUPERSCRIPT_Y 7
SUPERSCRIPT_SIZE 12
SUBSCRIPT_X 0
SUBSCRIPT_Y 1
SUBSCRIPT_SIZE 12
AVG_LOWERCASE_WIDTH 58
AVG_UPPERCASE_WIDTH 76
ENDPROPERTIES
CHARS 248
STARTCHAR CR
ENCODING 13
SWIDTH 600 0
DWIDTH 12 0
BBX 1 1 0 0
BITMAP
00
ENDCHAR
STARTCHAR space
ENCODING 32
SWIDTH 240 0
DWIDTH 5 0
BBX 1 1 0 0
BITMAP
00
ENDCHAR
STARTCHAR exclam
ENCODING 33
SWIDTH 141 0
DWIDTH 3 0
BBX 1 14 1 0
BITMAP
40
40
40
40
40
40
40
40
40
40
00
00
40
40
ENDCHAR
STARTCHAR quotedbl
ENCODING 34
SWIDTH 195 0
DWIDTH 4 0
BBX 2 4 1 10
BITMAP
50
50
50
50
ENDCHAR
STARTCHAR numbersign
ENCODING 35
SWIDTH 454 0
DWIDTH 9 0
BBX 9 14 0 0
BITMAP
010100
010100
010500
010400
165940
050400
040400
040400
041400
596500
041000
141000
101000
101000
ENDCHAR
STARTCHAR dollar
ENCODING 36
SWIDTH 356 0
DWIDTH 7 0
BBX 7 18 0 -2
BITMAP
0100
0100
0650
2110
1100
1100
1100
1500
0600
0240
0110
0114
0104
4104
1110
1650
0100
0100
ENDCHAR
STARTCHAR percent
ENCODING 37
SWIDTH 470 0
DWIDTH 9 0
BBX 8 14 1 0
BITMAP
5404
4114
4110
4110
4540
1440
0140
0154
0185
0441
0541
1041
1045
1054
ENDCHAR
STARTCHAR ampersand
ENCODING 38
SWIDTH 520 0
DWIDTH 10 0
BBX 10 14 0 0
BITMAP
005000
010400
010400
011000
015000
014000
054140
044110
105400
101400
501400
101800
101100
154050
ENDCHAR
STARTCHAR quotesingle
ENCODING 39
SWIDTH 121 0
DWIDTH 2 0
BBX 1 4 1 10
BITMAP
40
40
40
40
ENDCHAR
STARTCHAR parenleft
ENCODING 40
SWIDTH 233 0
DWIDTH 5 0
BBX 3 16 1 -1
BITMAP
04
14
10
10
50
40
40
40
40
40
40
10
10
10
04
04
ENDCHAR
STARTCHAR parenright
ENCODING 41
SWIDTH 233 0
DWIDTH 5 0
BBX 4 16 0 -1
BITMAP
50
10
10
04
04
04
04
05
05
04
04
04
04
14
10
10
ENDCHAR
STARTCHAR asterisk
ENCODING 42
SWIDTH 313 0
DWIDTH 6 0
BBX 4 5 1 9
BITMAP
04
45
29
15
01
ENDCHAR
STARTCHAR plus
ENCODING 43
SWIDTH 577 0
DWIDTH 12 0
BBX 10 10 1 0
BITMAP
004000
004000
004000
004000
559550
004000
004000
004000
004000
004000
ENDCHAR
STARTCHAR comma
ENCODING 44
SWIDTH 145 0
DWIDTH 3 0
BBX 2 4 0 -2
BITMAP
10
10
10
50
ENDCHAR
STARTCHAR hyphen
ENCODING 45
SWIDTH 286 0
DWIDTH 6 0
BBX 4 1 1 6
BITMAP
55
ENDCHAR
STARTCHAR period
ENCODING 46
SWIDTH 181 0
DWIDTH 4 0
BBX 1 2 1 0
BITMAP
40
40
ENDCHAR
STARTCHAR slash
ENCODING 47
SWIDTH 292 0
DWIDTH 6 0
BBX 6 17 0 -1
BITMAP
0010
0010
0040
0040
0040
0100
0100
0100
0400
0400
0400
1400
1000
1000
5000
4000
4000
ENDCHAR
STARTCHAR zero
ENCODING 48
SWIDTH 378 0
DWIDTH 8 0
BBX 7 14 0 0
BITMAP
0540
1410
1010
2004
1004
1004
5004
5004
1004
1004
2004
1010
1410
0540
ENDCHAR
STARTCHAR one
ENCODING 49
SWIDTH 303 0
DWIDTH 6 0
BBX 6 14 0 0
BITMAP
1900
1100
0100
0100
0100
0100
0100
0100
0100
0100
0100
0100
0100
5650
ENDCHAR
STARTCHAR two
ENCODING 50
SWIDTH 343 0
DWIDTH 7 0
BBX 6 14 0 0
BITMAP
0540
2010
0010
0010
0010
0010
0050
0040
0200
0400
1400
1000
4000
5550
ENDCHAR
STARTCHAR three
ENCODING 51
SWIDTH 377 0
DWIDTH 8 0
BBX 7 14 0 0
BITMAP
0550
1010
0010
0010
0010
0590
0550
0004
0004
0004
0004
0004
5010
1550
ENDCHAR
STARTCHAR four
ENCODING 52
SWIDTH 389 0
DWIDTH 8 0
BBX 7 14 0 0
BITMAP
0050
0040
0140
0100
0110
0410
0410
1010
1010
5564
0010
0010
0010
0010
ENDCHAR
STARTCHAR five
ENCODING 53
SWIDTH 372 0
DWIDTH 7 0
BBX 7 15 0 0
BITMAP
0004
0950
0400
0400
0400
0400
0940
1420
1404
2004
0004
0004
0004
5010
1550
ENDCHAR
STARTCHAR six
ENCODING 54
SWIDTH 360 0
DWIDTH 7 0
BBX 7 14 0 0
BITMAP
0040
0200
0400
0400
1000
1000
1150
1410
1004
5004
1004
1004
1010
0550
ENDCHAR
STARTCHAR seven
ENCODING 55
SWIDTH 321 0
DWIDTH 6 0
BBX 6 14 0 0
BITMAP
5560
0010
0040
0040
0040
0100
0100
0100
0400
0400
0400
1000
1000
1000
ENDCHAR
STARTCHAR eight
ENCODING 56
SWIDTH 377 0
DWIDTH 8 0
BBX 7 14 0 0
BITMAP
0550
1010
1004
1004
1010
0810
0240
0850
1010
1004
5004
1004
2014
0550
ENDCHAR
STARTCHAR nine
ENCODING 57
SWIDTH 360 0
DWIDTH 7 0
BBX 7 14 0 0
BITMAP
0540
1010
1010
4004
4004
5004
2054
0550
0010
0010
0040
0040
0100
0400
ENDCHAR
STARTCHAR colon
ENCODING 58
SWIDTH 181 0
DWIDTH 4 0
BBX 1 10 1 0
BITMAP
40
40
00
00
00
00
00
00
40
40
ENDCHAR
STARTCHAR semicolon
ENCODING 59
SWIDTH 165 0
DWIDTH 3 0
BBX 2 12 0 -2
BITMAP
10
10
00
00
00
00
00
00
10
10
10
50
ENDCHAR
STARTCHAR less
ENCODING 60
SWIDTH 482 0
DWIDTH 10 0
BBX 8 8 1 1
BITMAP
0005
0054
0540
1400
9000
0500
0050
0005
ENDCHAR
STARTCHAR equal
ENCODING 61
SWIDTH 577 0
DWIDTH 12 0
BBX 10 4 1 3
BITMAP
555550
000000
000000
555550
ENDCHAR
STARTCHAR greater
ENCODING 62
SWIDTH 482 0
DWIDTH 10 0
BBX 8 8 1 1
BITMAP
5000
0500
0050
0009
0014
0140
1400
4000
ENDCHAR
STARTCHAR question
ENCODING 63
SWIDTH 300 0
DWIDTH 6 0
BBX 5 14 0 0
BITMAP
1540
4040
0040
0040
0140
0100
0400
0400
0400
0400
0000
0000
0400
0400
ENDCHAR
STARTCHAR at
ENCODING 64
SWIDTH 748 0
DWIDTH 15 0
BBX 13 14 1 0
BITMAP
01555000
05014800
20044200
40104040
40104040
40400040
40410040
41450040
41050040
41090140
41180500
20515000
05000500
01555000
ENDCHAR
STARTCHAR A
ENCODING 65
SWIDTH 414 0
DWIDTH 8 0
BBX 8 14 0 0
BITMAP
0040
0140
0140
0150
0510
0410
0410
0404
1958
1004
1004
1001
4001
4001
ENDCHAR
STARTCHAR B
ENCODING 66
SWIDTH 375 0
DWIDTH 8 0
BBX 6 14 1 0
BITMAP
9600
4040
4040
4050
4050
5540
5180
4580
4050
4010
4010
4050
4080
9600
ENDCHAR
STARTCHAR C
ENCODING 67
SWIDTH 366 0
DWIDTH 7 0
BBX 7 14 0 0
BITMAP
0554
0400
1000
1000
1000
1000
5000
5000
1000
1000
1000
1000
0400
0554
ENDCHAR
STARTCHAR D
ENCODING 68
SWIDTH 396 0
DWIDTH 8 0
BBX 6 14 1 0
BITMAP
9540
4040
4010
4010
4010
4010
4010
4010
4010
4010
4010
4010
4040
9540
ENDCHAR
STARTCHAR E
ENCODING 69
SWIDTH 309 0
DWIDTH 6 0
BBX 4 14 1 0
BITMAP
95
40
40
40
40
40
95
40
40
40
40
40
40
95
ENDCHAR
STARTCHAR F
ENCODING 70
SWIDTH 299 0
DWIDTH 6 0
BBX 4 14 1 0
BITMAP
95
40
40
40
40
40
95
40
40
40
40
40
40
40
ENDCHAR
STARTCHAR G
ENCODING 71
SWIDTH 382 0
DWIDTH 8 0
BBX 7 14 0 0
BITMAP
0554
0400
1000
1000
1000
1000
5000
5054
1004
1004
1004
1004
0404
0554
ENDCHAR
STARTCHAR H
ENCODING 72
SWIDTH 425 0
DWIDTH 9 0
BBX 7 14 1 0
BITMAP
4004
4004
4004
4004
4004
4004
9564
4004
4004
4004
4004
4004
4004
4004
ENDCHAR
STARTCHAR I
ENCODING 73
SWIDTH 141 0
DWIDTH 3 0
BBX 1 14 1 0
BITMAP
40
40
40
40
40
40
40
40
40
40
40
40
40
40
ENDCHAR
STARTCHAR J
ENCODING 74
SWIDTH 142 0
DWIDTH 3 0
BBX 4 18 -2 -4
BITMAP
01
01
01
01
01
01
01
01
01
01
01
01
01
01
01
01
05
54
ENDCHAR
STARTCHAR K
ENCODING 75
SWIDTH 401 0
DWIDTH 8 0
BBX 7 14 0 0
BITMAP
1008
1014
1010
1050
1040
6640
6440
1010
1010
1004
1004
1004
1004
1004
ENDCHAR
STARTCHAR L
ENCODING 76
SWIDTH 347 0
DWIDTH 7 0
BBX 5 14 1 0
BITMAP
4000
4000
4000
4000
4000
4000
4000
4000
4000
4000
4000
4000
4000
9540
ENDCHAR
STARTCHAR M
ENCODING 77
SWIDTH 534 0
DWIDTH 11 0
BBX 9 14 1 0
BITMAP
600200
580900
425100
408100
415100
411140
414040
408040
418040
414040
408040
400040
400040
400040
ENDCHAR
STARTCHAR N
ENCODING 78
SWIDTH 422 0
DWIDTH 8 0
BBX 7 14 1 0
BITMAP
8004
8014
5014
5014
4414
4414
4514
4114
4114
4054
4054
4014
4024
4014
ENDCHAR
STARTCHAR O
ENCODING 79
SWIDTH 446 0
DWIDTH 9 0
BBX 8 14 0 0
BITMAP
0554
0404
1001
1001
1001
1001
5001
5001
1001
1001
1001
1001
0404
0554
ENDCHAR
STARTCHAR P
ENCODING 80
SWIDTH 341 0
DWIDTH 7 0
BBX 6 14 1 0
BITMAP
9500
4040
4040
4050
4040
4140
9500
4000
4000
4000
4000
4000
4000
4000
ENDCHAR
STARTCHAR Q
ENCODING 81
SWIDTH 446 0
DWIDTH 9 0
BBX 8 20 0 -6
BITMAP
0554
0404
1001
1001
1001
1001
5001
5001
1001
2406
1515
1091
0494
0664
0150
0080
0080
0050
0090
0040
ENDCHAR
STARTCHAR R
ENCODING 82
SWIDTH 380 0
DWIDTH 8 0
BBX 7 14 0 0
BITMAP
2550
1010
1014
1004
1010
6510
6580
1010
1010
1010
1004
1004
1004
1004
ENDCHAR
STARTCHAR S
ENCODING 83
SWIDTH 356 0
DWIDTH 7 0
BBX 7 14 0 0
BITMAP
0550
2010
1000
1000
1000
1400
0500
0040
0010
0014
0004
4004
1010
1550
ENDCHAR
STARTCHAR T
ENCODING 84
SWIDTH 377 0
DWIDTH 8 0
BBX 7 14 0 0
BITMAP
5654
0100
0100
0100
0100
0100
0100
0100
0100
0100
0100
0100
0100
0100
ENDCHAR
STARTCHAR U
ENCODING 85
SWIDTH 412 0
DWIDTH 8 0
BBX 7 14 1 0
BITMAP
4004
4014
4014
4014
4014
4014
4014
4014
4014
4014
4014
4010
4010
1540
ENDCHAR
STARTCHAR V
ENCODING 86
SWIDTH 384 0
DWIDTH 8 0
BBX 8 14 0 0
BITMAP
4001
4004
1004
1004
1004
1010
1410
0410
0410
0440
0540
0140
0140
0100
ENDCHAR
STARTCHAR W
ENCODING 87
SWIDTH 534 0
DWIDTH 11 0
BBX 9 14 1 0
BITMAP
400040
400040
400040
400040
418040
414040
414040
418040
408140
418100
411100
441100
540500
600200
ENDCHAR
STARTCHAR X
ENCODING 88
SWIDTH 318 0
DWIDTH 6 0
BBX 6 14 0 0
BITMAP
4010
1010
1040
1440
0540
0500
0200
0600
0500
1440
1040
1010
4010
4010
ENDCHAR
STARTCHAR Y
ENCODING 89
SWIDTH 370 0
DWIDTH 7 0
BBX 7 14 0 0
BITMAP
4004
5004
1014
1010
0410
0440
0140
0200
0100
0100
0100
0100
0100
0100
ENDCHAR
STARTCHAR Z
ENCODING 90
SWIDTH 309 0
DWIDTH 6 0
BBX 6 14 0 0
BITMAP
5560
0050
0040
0040
0100
0100
0100
0400
0400
0400
1000
1000
5000
9550
ENDCHAR
STARTCHAR bracketleft
ENCODING 91
SWIDTH 193 0
DWIDTH 4 0
BBX 3 18 1 -2
BITMAP
54
40
40
40
40
40
40
40
40
40
40
40
40
40
40
40
40
54
ENDCHAR
STARTCHAR backslash
ENCODING 92
SWIDTH 292 0
DWIDTH 6 0
BBX 6 17 0 -1
BITMAP
4000
4000
5000
1000
1000
1400
0400
0400
0400
0100
0100
0100
0040
0040
0040
0010
0010
ENDCHAR
STARTCHAR bracketright
ENCODING 93
SWIDTH 193 0
DWIDTH 4 0
BBX 3 18 0 -2
BITMAP
54
04
04
04
04
04
04
04
04
04
04
04
04
04
04
04
04
54
ENDCHAR
STARTCHAR asciicircum
ENCODING 94
SWIDTH 416 0
DWIDTH 8 0
BBX 8 8 0 6
BITMAP
0180
0140
0110
0410
0404
1004
1001
4001
ENDCHAR
STARTCHAR underscore
ENCODING 95
SWIDTH 556 0
DWIDTH 11 0
BBX 9 1 1 -1
BITMAP
555540
ENDCHAR
STARTCHAR grave
ENCODING 96
SWIDTH 201 0
DWIDTH 4 0
BBX 2 2 1 11
BITMAP
40
10
ENDCHAR
STARTCHAR a
ENCODING 97
SWIDTH 315 0
DWIDTH 6 0
BBX 6 10 0 0
BITMAP
1540
1040
0040
0040
0180
1440
1040
4040
4080
2550
ENDCHAR
STARTCHAR b
ENCODING 98
SWIDTH 298 0
DWIDTH 6 0
BBX 4 15 1 0
BITMAP
40
40
40
40
40
94
81
41
41
41
41
41
41
81
54
ENDCHAR
STARTCHAR c
ENCODING 99
SWIDTH 275 0
DWIDTH 6 0
BBX 5 10 0 0
BITMAP
0540
1040
1000
1000
5000
5000
1000
1000
1040
0540
ENDCHAR
STARTCHAR d
ENCODING 100
SWIDTH 298 0
DWIDTH 6 0
BBX 5 15 0 0
BITMAP
0040
0040
0040
0040
0040
0580
1080
1040
1040
5040
5040
1040
1040
1080
1540
ENDCHAR
STARTCHAR e
ENCODING 101
SWIDTH 285 0
DWIDTH 6 0
BBX 5 10 0 0
BITMAP
0500
1040
2040
1040
6580
5000
1000
1000
1040
0540
ENDCHAR
STARTCHAR f
ENCODING 102
SWIDTH 178 0
DWIDTH 4 0
BBX 5 15 0 0
BITMAP
0540
1400
1000
1000
1000
6500
1000
1000
1000
1000
1000
1000
1000
1000
1000
ENDCHAR
STARTCHAR g
ENCODING 103
SWIDTH 302 0
DWIDTH 6 0
BBX 6 15 0 -4
BITMAP
0040
0A40
1040
1040
1040
1040
1040
1040
1900
1000
1500
4050
4010
4010
1550
ENDCHAR
STARTCHAR h
ENCODING 104
SWIDTH 307 0
DWIDTH 6 0
BBX 4 15 1 0
BITMAP
40
40
40
40
40
55
81
41
41
41
41
41
41
41
41
ENDCHAR
STARTCHAR i
ENCODING 105
SWIDTH 141 0
DWIDTH 3 0
BBX 1 13 1 0
BITMAP
40
40
00
40
40
40
40
40
40
40
40
40
40
ENDCHAR
STARTCHAR j
ENCODING 106
SWIDTH 141 0
DWIDTH 3 0
BBX 4 17 -2 -4
BITMAP
01
01
00
01
01
01
01
01
01
01
01
01
01
01
01
05
54
ENDCHAR
STARTCHAR k
ENCODING 107
SWIDTH 287 0
DWIDTH 6 0
BBX 5 15 1 0
BITMAP
4000
4000
4000
4000
4000
4100
4500
4400
6400
9400
4400
4500
4100
4100
4140
ENDCHAR
STARTCHAR l
ENCODING 108
SWIDTH 141 0
DWIDTH 3 0
BBX 1 15 1 0
BITMAP
40
40
40
40
40
40
40
40
40
40
40
40
40
40
40
ENDCHAR
STARTCHAR m
ENCODING 109
SWIDTH 407 0
DWIDTH 8 0
BBX 6 10 1 0
BITMAP
9020
5490
4610
4610
4510
4510
4510
4010
4010
4010
ENDCHAR
STARTCHAR n
ENCODING 110
SWIDTH 307 0
DWIDTH 6 0
BBX 4 10 1 0
BITMAP
55
81
41
41
41
41
41
41
41
41
ENDCHAR
STARTCHAR o
ENCODING 111
SWIDTH 309 0
DWIDTH 6 0
BBX 6 10 0 0
BITMAP
0500
1040
1040
1050
5010
5010
1050
1040
1040
0500
ENDCHAR
STARTCHAR p
ENCODING 112
SWIDTH 299 0
DWIDTH 6 0
BBX 6 15 0 -4
BITMAP
1000
2500
5040
1040
1040
1050
1040
1040
1040
2040
2500
1000
1000
1000
1000
ENDCHAR
STARTCHAR q
ENCODING 113
SWIDTH 286 0
DWIDTH 6 0
BBX 6 14 0 -4
BITMAP
0540
1080
1040
1040
5040
5040
1040
1040
1080
0580
0040
0040
0040
0050
ENDCHAR
STARTCHAR r
ENCODING 114
SWIDTH 277 0
DWIDTH 6 0
BBX 4 10 1 0
BITMAP
55
81
41
40
40
40
40
40
40
40
ENDCHAR
STARTCHAR s
ENCODING 115
SWIDTH 257 0
DWIDTH 5 0
BBX 5 10 0 0
BITMAP
1500
1040
1000
1000
1400
0100
0040
0040
4040
1600
ENDCHAR
STARTCHAR t
ENCODING 116
SWIDTH 207 0
DWIDTH 4 0
BBX 4 12 0 0
BITMAP
10
10
65
10
10
10
10
10
10
10
10
09
ENDCHAR
STARTCHAR u
ENCODING 117
SWIDTH 307 0
DWIDTH 6 0
BBX 4 10 1 0
BITMAP
41
41
41
41
41
41
41
41
42
55
ENDCHAR
STARTCHAR v
ENCODING 118
SWIDTH 285 0
DWIDTH 6 0
BBX 6 10 0 0
BITMAP
4010
4040
1040
1040
1040
1100
0500
0500
0500
0400
ENDCHAR
STARTCHAR w
ENCODING 119
SWIDTH 396 0
DWIDTH 8 0
BBX 8 10 0 0
BITMAP
4001
4005
5144
1144
1144
1144
1144
1144
1814
2414
ENDCHAR
STARTCHAR x
ENCODING 120
SWIDTH 244 0
DWIDTH 5 0
BBX 5 10 0 0
BITMAP
5100
1100
1100
1800
0800
0800
1500
1100
1100
4040
ENDCHAR
STARTCHAR y
ENCODING 121
SWIDTH 285 0
DWIDTH 6 0
BBX 6 14 0 -4
BITMAP
4010
4040
1040
1040
1040
1100
0500
0500
0500
0400
0400
0400
0400
5000
ENDCHAR
STARTCHAR z
ENCODING 122
SWIDTH 233 0
DWIDTH 5 0
BBX 4 10 0 0
BITMAP
16
01
01
04
04
04
10
10
50
55
ENDCHAR
STARTCHAR braceleft
ENCODING 123
SWIDTH 306 0
DWIDTH 6 0
BBX 6 18 0 -2
BITMAP
0050
0100
0100
0100
0100
0100
0100
0100
5500
5500
0100
0100
0100
0100
0100
0100
0100
0050
ENDCHAR
STARTCHAR bar
ENCODING 124
SWIDTH 141 0
DWIDTH 3 0
BBX 1 17 1 -1
BITMAP
40
40
40
40
40
40
40
40
40
40
40
40
40
40
40
40
40
ENDCHAR
STARTCHAR braceright
ENCODING 125
SWIDTH 306 0
DWIDTH 6 0
BBX 6 18 0 -2
BITMAP
5000
0400
0400
0400
0400
0400
0400
0400
0550
0550
0400
0400
0400
0400
0400
0400
0400
5000
ENDCHAR
STARTCHAR asciitilde
ENCODING 126
SWIDTH 433 0
DWIDTH 9 0
BBX 7 2 1 5
BITMAP
5504
4150
ENDCHAR
STARTCHAR uni00A0
ENCODING 160
SWIDTH 240 0
DWIDTH 5 0
BBX 1 1 0 0
BITMAP
00
ENDCHAR
STARTCHAR exclamdown
ENCODING 161
SWIDTH 141 0
DWIDTH 3 0
BBX 1 14 1 -3
BITMAP
40
40
00
00
40
40
40
40
40
40
40
40
40
40
ENDCHAR
STARTCHAR cent
ENCODING 162
SWIDTH 275 0
DWIDTH 6 0
BBX 5 13 0 -2
BITMAP
0500
0500
1940
1540
1500
1500
5500
1500
1540
1580
0A00
0500
0500
ENDCHAR
STARTCHAR sterling
ENCODING 163
SWIDTH 331 0
DWIDTH 7 0
BBX 6 14 0 0
BITMAP
1540
1010
4000
4000
5000
1000
1400
1940
0400
0400
0400
0400
1000
6550
ENDCHAR
STARTCHAR currency
ENCODING 164
SWIDTH 506 0
DWIDTH 10 0
BBX 8 9 1 2
BITMAP
4001
5555
2008
1005
5001
1005
2408
5555
4000
ENDCHAR
STARTCHAR yen
ENCODING 165
SWIDTH 370 0
DWIDTH 7 0
BBX 7 14 0 0
BITMAP
4004
5004
1010
1410
0450
0440
0240
0100
1650
0100
1650
0100
0100
0100
ENDCHAR
STARTCHAR brokenbar
ENCODING 166
SWIDTH 141 0
DWIDTH 3 0
BBX 1 17 1 -1
BITMAP
40
40
40
40
40
40
40
00
00
00
40
40
40
40
40
40
40
ENDCHAR
STARTCHAR section
ENCODING 167
SWIDTH 303 0
DWIDTH 6 0
BBX 6 18 0 -2
BITMAP
1540
1040
4010
4000
1000
1400
0A00
2580
1050
1050
1040
0500
0140
0040
0010
4010
5040
1540
ENDCHAR
STARTCHAR dieresis
ENCODING 168
SWIDTH 241 0
DWIDTH 5 0
BBX 3 2 1 11
BITMAP
44
44
ENDCHAR
STARTCHAR copyright
ENCODING 169
SWIDTH 772 0
DWIDTH 15 0
BBX 15 15 0 0
BITMAP
00155000
01400500
05014080
04080010
10140010
10100004
10100004
50100004
10100004
10140004
10080010
04014010
05000080
01400500
00155000
ENDCHAR
STARTCHAR ordfeminine
ENCODING 170
SWIDTH 231 0
DWIDTH 5 0
BBX 4 6 0 8
BITMAP
18
01
05
15
41
56
ENDCHAR
STARTCHAR guillemotleft
ENCODING 171
SWIDTH 403 0
DWIDTH 8 0
BBX 6 8 1 2
BITMAP
0510
1450
1140
4100
8100
1140
1450
0510
ENDCHAR
STARTCHAR logicalnot
ENCODING 172
SWIDTH 557 0
DWIDTH 11 0
BBX 10 4 1 3
BITMAP
555550
000010
000010
000010
ENDCHAR
STARTCHAR uni00AD
ENCODING 173
SWIDTH 286 0
DWIDTH 6 0
BBX 4 1 1 6
BITMAP
55
ENDCHAR
STARTCHAR registered
ENCODING 174
SWIDTH 772 0
DWIDTH 15 0
BBX 15 15 0 0
BITMAP
00155000
01400500
05000080
04054010
10045010
10041004
10044004
50098004
10044004
10041004
10041010
04041010
05000080
01400500
00155000
ENDCHAR
STARTCHAR macron
ENCODING 175
SWIDTH 266 0
DWIDTH 5 0
BBX 3 1 1 12
BITMAP
54
ENDCHAR
STARTCHAR degree
ENCODING 176
SWIDTH 350 0
DWIDTH 7 0
BBX 5 6 1 9
BITMAP
1500
4040
4040
4040
4040
1500
ENDCHAR
STARTCHAR plusminus
ENCODING 177
SWIDTH 577 0
DWIDTH 12 0
BBX 10 10 1 0
BITMAP
004000
004000
004000
004000
559550
004000
004000
004000
000000
555550
ENDCHAR
STARTCHAR uni00B2
ENCODING 178
SWIDTH 207 0
DWIDTH 4 0
BBX 4 6 0 8
BITMAP
28
01
04
04
10
65
ENDCHAR
STARTCHAR uni00B3
ENCODING 179
SWIDTH 214 0
DWIDTH 4 0
BBX 3 6 1 8
BITMAP
60
10
20
04
04
50
ENDCHAR
STARTCHAR acute
ENCODING 180
SWIDTH 201 0
DWIDTH 4 0
BBX 2 2 1 11
BITMAP
10
40
ENDCHAR
STARTCHAR uni00B5
ENCODING 181
SWIDTH 335 0
DWIDTH 7 0
BBX 5 14 1 -4
BITMAP
4100
4100
4100
4100
4100
4100
4100
4100
4100
9540
4000
4000
4000
4000
ENDCHAR
STARTCHAR paragraph
ENCODING 182
SWIDTH 471 0
DWIDTH 9 0
BBX 8 14 1 0
BITMAP
1BD5
7FD5
BFD5
BFD5
BFD5
7FD5
1FD5
0055
0055
0055
0055
0055
0055
0055
ENDCHAR
STARTCHAR periodcentered
ENCODING 183
SWIDTH 181 0
DWIDTH 4 0
BBX 1 2 1 5
BITMAP
40
40
ENDCHAR
STARTCHAR cedilla
ENCODING 184
SWIDTH 232 0
DWIDTH 5 0
BBX 3 4 1 -4
BITMAP
10
50
04
50
ENDCHAR
STARTCHAR uni00B9
ENCODING 185
SWIDTH 176 0
DWIDTH 4 0
BBX 3 6 0 8
BITMAP
60
10
10
10
10
64
ENDCHAR
STARTCHAR ordmasculine
ENCODING 186
SWIDTH 201 0
DWIDTH 4 0
BBX 4 6 0 8
BITMAP
14
41
41
41
41
14
ENDCHAR
STARTCHAR guillemotright
ENCODING 187
SWIDTH 403 0
DWIDTH 8 0
BBX 6 8 1 2
BITMAP
4500
5140
1440
0420
0510
1450
1140
4100
ENDCHAR
STARTCHAR onequarter
ENCODING 188
SWIDTH 527 0
DWIDTH 11 0
BBX 9 14 1 0
BITMAP
500100
100100
100400
100400
101000
641000
004000
004000
010400
010400
040500
041100
102640
100100
ENDCHAR
STARTCHAR onehalf
ENCODING 189
SWIDTH 540 0
DWIDTH 11 0
BBX 9 14 1 0
BITMAP
500100
100100
100400
100400
101000
641000
004000
004000
010540
010040
040040
040100
100400
100940
ENDCHAR
STARTCHAR threequarters
ENCODING 190
SWIDTH 517 0
DWIDTH 10 0
BBX 9 14 1 0
BITMAP
600100
100100
200400
040400
041000
501000
004000
004000
010100
010400
040500
041100
101640
100100
ENDCHAR
STARTCHAR questiondown
ENCODING 191
SWIDTH 300 0
DWIDTH 6 0
BBX 5 14 1 -3
BITMAP
0400
0400
0000
0000
0400
0400
0400
1400
1000
4000
4000
4000
4040
5500
ENDCHAR
STARTCHAR Agrave
ENCODING 192
SWIDTH 414 0
DWIDTH 8 0
BBX 8 17 0 0
BITMAP
0100
0100
0000
0040
0140
0140
0150
0510
0410
0410
0404
1958
1004
1004
1001
4001
4001
ENDCHAR
STARTCHAR Aacute
ENCODING 193
SWIDTH 414 0
DWIDTH 8 0
BBX 8 17 0 0
BITMAP
0010
0040
0000
0040
0140
0140
0150
0510
0410
0410
0404
1958
1004
1004
1001
4001
4001
ENDCHAR
STARTCHAR Acircumflex
ENCODING 194
SWIDTH 414 0
DWIDTH 8 0
BBX 8 17 0 0
BITMAP
0040
0140
0000
0040
0140
0140
0150
0510
0410
0410
0404
1958
1004
1004
1001
4001
4001
ENDCHAR
STARTCHAR Atilde
ENCODING 195
SWIDTH 414 0
DWIDTH 8 0
BBX 8 17 0 0
BITMAP
0510
0450
0000
0040
0140
0140
0150
0510
0410
0410
0404
1958
1004
1004
1001
4001
4001
ENDCHAR
STARTCHAR Adieresis
ENCODING 196
SWIDTH 414 0
DWIDTH 8 0
BBX 8 17 0 0
BITMAP
0110
0110
0000
0040
0140
0140
0150
0510
0410
0410
0404
1958
1004
1004
1001
4001
4001
ENDCHAR
STARTCHAR Aring
ENCODING 197
SWIDTH 414 0
DWIDTH 8 0
BBX 8 18 0 0
BITMAP
0140
0150
0140
0000
0040
0140
0140
0150
0510
0410
0410
0404
1958
1004
1004
1001
4001
4001
ENDCHAR
STARTCHAR AE
ENCODING 198
SWIDTH 545 0
DWIDTH 11 0
BBX 10 14 0 0
BITMAP
001950
002400
001400
004400
004400
014400
020950
010400
055400
040400
100400
100400
500400
400950
ENDCHAR
STARTCHAR Ccedilla
ENCODING 199
SWIDTH 366 0
DWIDTH 7 0
BBX 7 18 0 -4
BITMAP
0554
0400
1000
1000
1000
1000
5000
5000
1000
1000
1000
1000
0400
0554
0040
0190
0010
0150
ENDCHAR
STARTCHAR Egrave
ENCODING 200
SWIDTH 309 0
DWIDTH 6 0
BBX 4 17 1 0
BITMAP
10
14
00
95
40
40
40
40
40
95
40
40
40
40
40
40
95
ENDCHAR
STARTCHAR Eacute
ENCODING 201
SWIDTH 309 0
DWIDTH 6 0
BBX 4 17 1 0
BITMAP
01
04
00
95
40
40
40
40
40
95
40
40
40
40
40
40
95
ENDCHAR
STARTCHAR Ecircumflex
ENCODING 202
SWIDTH 309 0
DWIDTH 6 0
BBX 4 17 1 0
BITMAP
04
15
00
95
40
40
40
40
40
95
40
40
40
40
40
40
95
ENDCHAR
STARTCHAR Edieresis
ENCODING 203
SWIDTH 309 0
DWIDTH 6 0
BBX 4 17 1 0
BITMAP
11
11
00
95
40
40
40
40
40
95
40
40
40
40
40
40
95
ENDCHAR
STARTCHAR Igrave
ENCODING 204
SWIDTH 141 0
DWIDTH 3 0
BBX 2 17 0 0
BITMAP
40
10
00
10
10
10
10
10
10
10
10
10
10
10
10
10
10
ENDCHAR
STARTCHAR Iacute
ENCODING 205
SWIDTH 141 0
DWIDTH 3 0
BBX 2 17 1 0
BITMAP
10
40
00
40
40
40
40
40
40
40
40
40
40
40
40
40
40
ENDCHAR
STARTCHAR Icircumflex
ENCODING 206
SWIDTH 141 0
DWIDTH 3 0
BBX 3 17 0 0
BITMAP
10
54
00
10
10
10
10
10
10
10
10
10
10
10
10
10
10
ENDCHAR
STARTCHAR Idieresis
ENCODING 207
SWIDTH 141 0
DWIDTH 3 0
BBX 3 17 0 0
BITMAP
44
44
00
10
10
10
10
10
10
10
10
10
10
10
10
10
10
ENDCHAR
STARTCHAR Eth
ENCODING 208
SWIDTH 396 0
DWIDTH 8 0
BBX 7 14 0 0
BITMAP
2550
1010
1004
1004
1004
1004
1004
6504
1004
1004
1004
1004
1010
2550
ENDCHAR
STARTCHAR Ntilde
ENCODING 209
SWIDTH 422 0
DWIDTH 8 0
BBX 7 17 1 0
BITMAP
0440
1140
0000
8004
8014
5014
5014
4414
4414
4514
4114
4114
4054
4054
4014
4024
4014
ENDCHAR
STARTCHAR Ograve
ENCODING 210
SWIDTH 446 0
DWIDTH 9 0
BBX 8 17 0 0
BITMAP
0100
0040
0000
0554
0404
1001
1001
1001
1001
5001
5001
1001
1001
1001
1001
0404
0554
ENDCHAR
STARTCHAR Oacute
ENCODING 211
SWIDTH 446 0
DWIDTH 9 0
BBX 8 17 0 0
BITMAP
0010
0040
0000
0554
0404
1001
1001
1001
1001
5001
5001
1001
1001
1001
1001
0404
0554
ENDCHAR
STARTCHAR Ocircumflex
ENCODING 212
SWIDTH 446 0
DWIDTH 9 0
BBX 8 17 0 0
BITMAP
0040
0150
0000
0554
0404
1001
1001
1001
1001
5001
5001
1001
1001
1001
1001
0404
0554
ENDCHAR
STARTCHAR Otilde
ENCODING 213
SWIDTH 446 0
DWIDTH 9 0
BBX 8 17 0 0
BITMAP
0150
0050
0000
0554
0404
1001
1001
1001
1001
5001
5001
1001
1001
1001
1001
0404
0554
ENDCHAR
STARTCHAR Odieresis
ENCODING 214
SWIDTH 446 0
DWIDTH 9 0
BBX 8 17 0 0
BITMAP
0110
0110
0000
0554
0404
1001
1001
1001
1001
5001
5001
1001
1001
1001
1001
0404
0554
ENDCHAR
STARTCHAR multiply
ENCODING 215
SWIDTH 445 0
DWIDTH 9 0
BBX 8 7 1 1
BITMAP
1004
0410
0140
0280
0410
1004
4001
ENDCHAR
STARTCHAR Oslash
ENCODING 216
SWIDTH 446 0
DWIDTH 9 0
BBX 8 14 0 0
BITMAP
0551
0409
1009
1005
1011
1011
5041
5041
1101
1101
1401
1401
1404
1554
ENDCHAR
STARTCHAR Ugrave
ENCODING 217
SWIDTH 412 0
DWIDTH 8 0
BBX 7 17 1 0
BITMAP
0400
0400
0000
4004
4014
4014
4014
4014
4014
4014
4014
4014
4014
4014
4010
4010
1540
ENDCHAR
STARTCHAR Uacute
ENCODING 218
SWIDTH 412 0
DWIDTH 8 0
BBX 7 17 1 0
BITMAP
0140
0100
0000
4004
4014
4014
4014
4014
4014
4014
4014
4014
4014
4014
4010
4010
1540
ENDCHAR
STARTCHAR Ucircumflex
ENCODING 219
SWIDTH 412 0
DWIDTH 8 0
BBX 7 17 1 0
BITMAP
0100
0500
0000
4004
4014
4014
4014
4014
4014
4014
4014
4014
4014
4014
4010
4010
1540
ENDCHAR
STARTCHAR Udieresis
ENCODING 220
SWIDTH 412 0
DWIDTH 8 0
BBX 7 17 1 0
BITMAP
0540
0540
0000
4004
4014
4014
4014
4014
4014
4014
4014
4014
4014
4014
4010
4010
1540
ENDCHAR
STARTCHAR Yacute
ENCODING 221
SWIDTH 370 0
DWIDTH 7 0
BBX 7 17 0 0
BITMAP
0040
0040
0000
4004
5004
1014
1010
0410
0440
0140
0200
0100
0100
0100
0100
0100
0100
ENDCHAR
STARTCHAR Thorn
ENCODING 222
SWIDTH 341 0
DWIDTH 7 0
BBX 6 14 1 0
BITMAP
4000
4000
9500
4040
4040
4050
4040
4040
4140
9500
4000
4000
4000
4000
ENDCHAR
STARTCHAR germandbls
ENCODING 223
SWIDTH 327 0
DWIDTH 7 0
BBX 5 14 1 0
BITMAP
1500
4100
4100
4100
4100
5600
5500
4040
4040
4040
4040
4040
4100
5500
ENDCHAR
STARTCHAR agrave
ENCODING 224
SWIDTH 315 0
DWIDTH 6 0
BBX 6 13 0 0
BITMAP
0400
0500
0000
1540
1040
0040
0040
0180
1440
1040
4040
4080
2550
ENDCHAR
STARTCHAR aacute
ENCODING 225
SWIDTH 315 0
DWIDTH 6 0
BBX 6 13 0 0
BITMAP
0100
0100
0000
1540
1040
0040
0040
0180
1440
1040
4040
4080
2550
ENDCHAR
STARTCHAR acircumflex
ENCODING 226
SWIDTH 315 0
DWIDTH 6 0
BBX 6 14 0 0
BITMAP
0500
0540
0000
0000
1540
1040
0040
0040
0180
1440
1040
4040
4080
2550
ENDCHAR
STARTCHAR atilde
ENCODING 227
SWIDTH 315 0
DWIDTH 6 0
BBX 6 13 0 0
BITMAP
1440
1140
0000
1540
1040
0040
0040
0180
1440
1040
4040
4080
2550
ENDCHAR
STARTCHAR adieresis
ENCODING 228
SWIDTH 315 0
DWIDTH 6 0
BBX 6 13 0 0
BITMAP
0440
0440
0000
1540
1040
0040
0040
0180
1440
1040
4040
4080
2550
ENDCHAR
STARTCHAR aring
ENCODING 229
SWIDTH 315 0
DWIDTH 6 0
BBX 6 14 0 0
BITMAP
0500
0540
0500
0000
1540
1040
0040
0040
0180
1440
1040
4040
4080
2550
ENDCHAR
STARTCHAR ae
ENCODING 230
SWIDTH 450 0
DWIDTH 9 0
BBX 9 10 0 0
BITMAP
155500
105100
008140
008040
059540
244000
504000
404000
509100
151500
ENDCHAR
STARTCHAR ccedilla
ENCODING 231
SWIDTH 275 0
DWIDTH 6 0
BBX 5 14 0 -4
BITMAP
0540
1040
1000
1000
5000
5000
1000
1000
1040
0540
0000
0500
0140
0500
ENDCHAR
STARTCHAR egrave
ENCODING 232
SWIDTH 285 0
DWIDTH 6 0
BBX 5 13 0 0
BITMAP
0400
0500
0000
0500
1040
2040
1040
6580
5000
1000
1000
1040
0540
ENDCHAR
STARTCHAR eacute
ENCODING 233
SWIDTH 285 0
DWIDTH 6 0
BBX 5 13 0 0
BITMAP
0100
0100
0000
0500
1040
2040
1040
6580
5000
1000
1000
1040
0540
ENDCHAR
STARTCHAR ecircumflex
ENCODING 234
SWIDTH 285 0
DWIDTH 6 0
BBX 5 14 0 0
BITMAP
0500
0540
0000
0000
0500
1040
2040
1040
6580
5000
1000
1000
1040
0540
ENDCHAR
STARTCHAR edieresis
ENCODING 235
SWIDTH 285 0
DWIDTH 6 0
BBX 5 13 0 0
BITMAP
0440
0440
0000
0500
1040
2040
1040
6580
5000
1000
1000
1040
0540
ENDCHAR
STARTCHAR igrave
ENCODING 236
SWIDTH 141 0
DWIDTH 3 0
BBX 2 13 0 0
BITMAP
40
10
00
10
10
10
10
10
10
10
10
10
10
ENDCHAR
STARTCHAR iacute
ENCODING 237
SWIDTH 141 0
DWIDTH 3 0
BBX 2 13 1 0
BITMAP
10
40
00
40
40
40
40
40
40
40
40
40
40
ENDCHAR
STARTCHAR icircumflex
ENCODING 238
SWIDTH 141 0
DWIDTH 3 0
BBX 3 14 0 0
BITMAP
20
44
00
00
10
10
10
10
10
10
10
10
10
10
ENDCHAR
STARTCHAR idieresis
ENCODING 239
SWIDTH 141 0
DWIDTH 3 0
BBX 3 13 0 0
BITMAP
44
44
00
10
10
10
10
10
10
10
10
10
10
ENDCHAR
STARTCHAR eth
ENCODING 240
SWIDTH 319 0
DWIDTH 6 0
BBX 6 15 0 0
BITMAP
1400
0400
0640
0540
0040
0580
1050
1010
1010
5010
5010
1010
1050
1040
0540
ENDCHAR
STARTCHAR ntilde
ENCODING 241
SWIDTH 307 0
DWIDTH 6 0
BBX 4 13 1 0
BITMAP
51
45
00
55
81
41
41
41
41
41
41
41
41
ENDCHAR
STARTCHAR ograve
ENCODING 242
SWIDTH 309 0
DWIDTH 6 0
BBX 6 13 0 0
BITMAP
0400
0500
0000
0500
1040
1040
1050
5010
5010
1050
1040
1040
0500
ENDCHAR
STARTCHAR oacute
ENCODING 243
SWIDTH 309 0
DWIDTH 6 0
BBX 6 13 0 0
BITMAP
0100
0100
0000
0500
1040
1040
1050
5010
5010
1050
1040
1040
0500
ENDCHAR
STARTCHAR ocircumflex
ENCODING 244
SWIDTH 309 0
DWIDTH 6 0
BBX 6 14 0 0
BITMAP
0500
0540
0000
0000
0500
1040
1040
1050
5010
5010
1050
1040
1040
0500
ENDCHAR
STARTCHAR otilde
ENCODING 245
SWIDTH 309 0
DWIDTH 6 0
BBX 6 13 0 0
BITMAP
1440
1140
0000
0500
1040
1040
1050
5010
5010
1050
1040
1040
0500
ENDCHAR
STARTCHAR odieresis
ENCODING 246
SWIDTH 309 0
DWIDTH 6 0
BBX 6 13 0 0
BITMAP
0440
0440
0000
0500
1040
1040
1050
5010
5010
1050
1040
1040
0500
ENDCHAR
STARTCHAR divide
ENCODING 247
SWIDTH 577 0
DWIDTH 12 0
BBX 10 10 1 0
BITMAP
004000
004000
000000
000000
555550
000000
000000
000000
004000
004000
ENDCHAR
STARTCHAR oslash
ENCODING 248
SWIDTH 309 0
DWIDTH 6 0
BBX 6 10 0 0
BITMAP
0540
1080
1080
1150
5110
1410
1450
2440
2040
1500
ENDCHAR
STARTCHAR ugrave
ENCODING 249
SWIDTH 307 0
DWIDTH 6 0
BBX 4 13 1 0
BITMAP
10
14
00
41
41
41
41
41
41
41
41
42
55
ENDCHAR
STARTCHAR uacute
ENCODING 250
SWIDTH 307 0
DWIDTH 6 0
BBX 4 13 1 0
BITMAP
04
04
00
41
41
41
41
41
41
41
41
42
55
ENDCHAR
STARTCHAR ucircumflex
ENCODING 251
SWIDTH 307 0
DWIDTH 6 0
BBX 4 14 1 0
BITMAP
14
15
00
00
41
41
41
41
41
41
41
41
42
55
ENDCHAR
STARTCHAR udieresis
ENCODING 252
SWIDTH 307 0
DWIDTH 6 0
BBX 4 13 1 0
BITMAP
11
11
00
41
41
41
41
41
41
41
41
42
55
ENDCHAR
STARTCHAR yacute
ENCODING 253
SWIDTH 285 0
DWIDTH 6 0
BBX 6 17 0 -4
BITMAP
0100
0500
0000
4010
4040
1040
1040
1040
1100
0500
0500
0500
0400
0400
0400
0400
5000
ENDCHAR
STARTCHAR thorn
ENCODING 254
SWIDTH 299 0
DWIDTH 6 0
BBX 6 18 0 -4
BITMAP
1000
1000
1000
1000
2500
5040
1040
1040
1050
1040
1040
1040
2040
2500
1000
1000
1000
1000
ENDCHAR
STARTCHAR ydieresis
ENCODING 255
SWIDTH 285 0
DWIDTH 6 0
BBX 6 17 0 -4
BITMAP
1100
1100
0000
4010
4040
1040
1040
1040
1100
0500
0500
0500
0400
0400
0400
0400
5000
ENDCHAR
STARTCHAR dotlessi
ENCODING 305
SWIDTH 141 0
DWIDTH 3 0
BBX 1 10 1 0
BITMAP
40
40
40
40
40
40
40
40
40
40
ENDCHAR
STARTCHAR OE
ENCODING 338
SWIDTH 505 0
DWIDTH 10 0
BBX 9 14 0 0
BITMAP
056540
041000
101000
101000
101000
101000
502540
501000
101000
101000
101000
101000
041000
056540
ENDCHAR
STARTCHAR oe
ENCODING 339
SWIDTH 492 0
DWIDTH 10 0
BBX 10 10 0 0
BITMAP
050540
105040
105040
106050
502580
501000
106000
105000
105040
050540
ENDCHAR
STARTCHAR Wcircumflex
ENCODING 372
SWIDTH 534 0
DWIDTH 11 0
BBX 9 17 1 0
BITMAP
004000
015000
000000
400040
400040
400040
400040
418040
414040
414040
418040
408140
418100
411100
441100
540500
600200
ENDCHAR
STARTCHAR wcircumflex
ENCODING 373
SWIDTH 396 0
DWIDTH 8 0
BBX 8 14 0 0
BITMAP
0140
0540
0000
0000
4001
4005
5144
1144
1144
1144
1144
1144
1814
2414
ENDCHAR
STARTCHAR Ycircumflex
ENCODING 374
SWIDTH 370 0
DWIDTH 7 0
BBX 7 17 0 0
BITMAP
0100
0540
0000
4004
5004
1014
1010
0410
0440
0140
0200
0100
0100
0100
0100
0100
0100
ENDCHAR
STARTCHAR ycircumflex
ENCODING 375
SWIDTH 285 0
DWIDTH 6 0
BBX 6 18 0 -4
BITMAP
0500
1500
0000
0000
4010
4040
1040
1040
1040
1100
0500
0500
0500
0400
0400
0400
0400
5000
ENDCHAR
STARTCHAR Ydieresis
ENCODING 376
SWIDTH 370 0
DWIDTH 7 0
BBX 7 17 0 0
BITMAP
0440
0440
0000
4004
5004
1014
1010
0410
0440
0140
0200
0100
0100
0100
0100
0100
0100
ENDCHAR
STARTCHAR uni0237
ENCODING 567
SWIDTH 141 0
DWIDTH 3 0
BBX 4 14 -2 -4
BITMAP
01
01
01
01
01
01
01
01
01
01
01
01
05
54
ENDCHAR
STARTCHAR circumflex
ENCODING 710
SWIDTH 280 0
DWIDTH 6 0
BBX 3 2 1 12
BITMAP
24
54
ENDCHAR
STARTCHAR ring
ENCODING 730
SWIDTH 238 0
DWIDTH 5 0
BBX 3 3 1 11
BITMAP
50
44
50
ENDCHAR
STARTCHAR tilde
ENCODING 732
SWIDTH 301 0
DWIDTH 6 0
BBX 4 2 1 11
BITMAP
51
45
ENDCHAR
STARTCHAR gravecomb
ENCODING 768
SWIDTH 0 0
DWIDTH 0 0
BBX 2 2 1 11
BITMAP
40
10
ENDCHAR
STARTCHAR acutecomb
ENCODING 769
SWIDTH 0 0
DWIDTH 0 0
BBX 2 2 1 11
BITMAP
10
40
ENDCHAR
STARTCHAR uni0302
ENCODING 770
SWIDTH 0 0
DWIDTH 0 0
BBX 3 2 1 12
BITMAP
24
54
ENDCHAR
STARTCHAR tildecomb
ENCODING 771
SWIDTH 0 0
DWIDTH 0 0
BBX 4 2 1 11
BITMAP
51
45
ENDCHAR
STARTCHAR uni0307
ENCODING 775
SWIDTH 0 0
DWIDTH 0 0
BBX 1 2 1 11
BITMAP
40
40
ENDCHAR
STARTCHAR uni0308
ENCODING 776
SWIDTH 0 0
DWIDTH 0 0
BBX 3 2 1 11
BITMAP
44
44
ENDCHAR
STARTCHAR uni030A
ENCODING 778
SWIDTH 0 0
DWIDTH 0 0
BBX 3 3 1 11
BITMAP
50
44
50
ENDCHAR
STARTCHAR uni0327
ENCODING 807
SWIDTH 0 0
DWIDTH 0 0
BBX 3 4 1 -4
BITMAP
10
50
04
50
ENDCHAR
STARTCHAR Wgrave
ENCODING 7808
SWIDTH 534 0
DWIDTH 11 0
BBX 9 17 1 0
BITMAP
010000
014000
000000
400040
400040
400040
400040
418040
414040
414040
418040
408140
418100
411100
441100
540500
600200
ENDCHAR
STARTCHAR wgrave
ENCODING 7809
SWIDTH 396 0
DWIDTH 8 0
BBX 8 13 0 0
BITMAP
0100
0140
0000
4001
4005
5144
1144
1144
1144
1144
1144
1814
2414
ENDCHAR
STARTCHAR Wacute
ENCODING 7810
SWIDTH 534 0
DWIDTH 11 0
BBX 9 17 1 0
BITMAP
001000
004000
000000
400040
400040
400040
400040
418040
414040
414040
418040
408140
418100
411100
441100
540500
600200
ENDCHAR
STARTCHAR wacute
ENCODING 7811
SWIDTH 396 0
DWIDTH 8 0
BBX 8 13 0 0
BITMAP
0040
0140
0000
4001
4005
5144
1144
1144
1144
1144
1144
1814
2414
ENDCHAR
STARTCHAR Wdieresis
ENCODING 7812
SWIDTH 534 0
DWIDTH 11 0
BBX 9 17 1 0
BITMAP
011000
011000
000000
400040
400040
400040
400040
418040
414040
414040
418040
408140
418100
411100
441100
540500
600200
ENDCHAR
STARTCHAR wdieresis
ENCODING 7813
SWIDTH 396 0
DWIDTH 8 0
BBX 8 13 0 0
BITMAP
0550
0440
0000
4001
4005
5144
1144
1144
1144
1144
1144
1814
2414
ENDCHAR
STARTCHAR uni1E9E
ENCODING 7838
SWIDTH 375 0
DWIDTH 8 0
BBX 6 14 1 0
BITMAP
1500
4040
4040
4040
4040
5540
5540
4050
4010
4010
4010
4050
4040
5500
ENDCHAR
STARTCHAR Ygrave
ENCODING 7922
SWIDTH 370 0
DWIDTH 7 0
BBX 7 17 0 0
BITMAP
0400
0100
0000
4004
5004
1014
1010
0410
0440
0140
0200
0100
0100
0100
0100
0100
0100
ENDCHAR
STARTCHAR ygrave
ENCODING 7923
SWIDTH 285 0
DWIDTH 6 0
BBX 6 17 0 -4
BITMAP
0400
0400
0000
4010
4040
1040
1040
1040
1100
0500
0500
0500
0400
0400
0400
0400
5000
ENDCHAR
STARTCHAR endash
ENCODING 8211
SWIDTH 425 0
DWIDTH 9 0
BBX 7 1 1 5
BITMAP
5554
ENDCHAR
STARTCHAR emdash
ENCODING 8212
SWIDTH 770 0
DWIDTH 15 0
BBX 14 1 1 5
BITMAP
55555550
ENDCHAR
STARTCHAR quoteleft
ENCODING 8216
SWIDTH 145 0
DWIDTH 3 0
BBX 1 4 1 10
BITMAP
40
40
40
40
ENDCHAR
STARTCHAR quoteright
ENCODING 8217
SWIDTH 145 0
DWIDTH 3 0
BBX 1 4 1 10
BITMAP
40
40
40
40
ENDCHAR
STARTCHAR quotesinglbase
ENCODING 8218
SWIDTH 145 0
DWIDTH 3 0
BBX 2 4 0 -2
BITMAP
10
10
10
50
ENDCHAR
STARTCHAR quotedblleft
ENCODING 8220
SWIDTH 219 0
DWIDTH 4 0
BBX 3 4 1 10
BITMAP
54
50
50
50
ENDCHAR
STARTCHAR quotedblright
ENCODING 8221
SWIDTH 219 0
DWIDTH 4 0
BBX 3 4 1 10
BITMAP
44
44
44
50
ENDCHAR
STARTCHAR quotedblbase
ENCODING 8222
SWIDTH 219 0
DWIDTH 4 0
BBX 4 4 0 -2
BITMAP
14
15
14
58
ENDCHAR
STARTCHAR bullet
ENCODING 8226
SWIDTH 355 0
DWIDTH 7 0
BBX 5 5 1 5
BITMAP
2E00
BF80
BFC0
BF80
2E00
ENDCHAR
STARTCHAR ellipsis
ENCODING 8230
SWIDTH 651 0
DWIDTH 13 0
BBX 11 2 1 0
BITMAP
401004
401004
ENDCHAR
STARTCHAR guilsinglleft
ENCODING 8249
SWIDTH 263 0
DWIDTH 5 0
BBX 4 8 1 2
BITMAP
05
14
10
40
80
10
14
05
ENDCHAR
STARTCHAR guilsinglright
ENCODING 8250
SWIDTH 263 0
DWIDTH 5 0
BBX 4 8 1 2
BITMAP
40
50
14
04
05
14
10
40
ENDCHAR
STARTCHAR fraction
ENCODING 8260
SWIDTH 152 0
DWIDTH 3 0
BBX 7 14 -2 0
BITMAP
0004
0004
0010
0010
0040
0040
0100
0100
0400
0400
1000
1000
4000
4000
ENDCHAR
STARTCHAR uni2074
ENCODING 8308
SWIDTH 247 0
DWIDTH 5 0
BBX 4 6 0 8
BITMAP
04
04
14
14
59
04
ENDCHAR
STARTCHAR Euro
ENCODING 8364
SWIDTH 391 0
DWIDTH 8 0
BBX 7 14 0 0
BITMAP
0154
0400
0400
1000
1000
6540
1000
6540
1000
1000
1400
0400
0400
0154
ENDCHAR
STARTCHAR trademark
ENCODING 8482
SWIDTH 506 0
DWIDTH 10 0
BBX 9 7 0 7
BITMAP
BF2080
042A80
041540
041540
041540
041540
041040
ENDCHAR
STARTCHAR minus
ENCODING 8722
SWIDTH 557 0
DWIDTH 11 0
BBX 10 1 1 6
BITMAP
FFFFD0
ENDCHAR
STARTCHAR uni2215
ENCODING 8725
SWIDTH 259 0
DWIDTH 5 0
BBX 5 15 0 0
BITMAP
0040
0040
0040
0140
0100
0100
0500
0400
0400
1400
1000
1000
1000
4000
4000
ENDCHAR
STARTCHAR .notdef
ENCODING -1
SWIDTH 500 0
DWIDTH 10 0
BBX 8 18 1 -4
BITMAP
FFFF
C003
C003
C003
C003
C003
C003
C003
C003
C003
C003
C003
C003
C003
C003
C003
C003
FFFF
ENDCHAR
STARTCHAR NULL
ENCODING -1
SWIDTH 600 0
DWIDTH 12 0
BBX 1 1 0 0
BITMAP
00
ENDCHAR
STARTCHAR acutecomb.case
ENCODING -1
SWIDTH 0 0
DWIDTH 0 0
BBX 2 2 1 15
BITMAP
10
40
ENDCHAR
STARTCHAR uni0302.case
ENCODING -1
SWIDTH 0 0
DWIDTH 0 0
BBX 3 2 1 15
BITMAP
10
54
ENDCHAR
STARTCHAR uni0308.case
ENCODING -1
SWIDTH 0 0
DWIDTH 0 0
BBX 3 2 1 15
BITMAP
44
44
ENDCHAR
STARTCHAR uni0307.case
ENCODING -1
SWIDTH 0 0
DWIDTH 0 0
BBX 1 2 1 15
BITMAP
40
40
ENDCHAR
STARTCHAR gravecomb.case
ENCODING -1
SWIDTH 0 0
DWIDTH 0 0
BBX 2 2 1 15
BITMAP
40
10
ENDCHAR
STARTCHAR uni030A.case
ENCODING -1
SWIDTH 0 0
DWIDTH 0 0
BBX 3 3 1 15
BITMAP
50
44
50
ENDCHAR
STARTCHAR tildecomb.case
ENCODING -1
SWIDTH 0 0
DWIDTH 0 0
BBX 4 2 1 15
BITMAP
51
45
ENDCHAR
ENDFONT
